<mxfile>
    <diagram id="-GXB3C-lZjfIy0wiZuxC" name="Page-1">
        <mxGraphModel dx="1510" dy="156" grid="1" gridSize="10" guides="1" tooltips="1" connect="1" arrows="1" fold="1" page="1" pageScale="1" pageWidth="850" pageHeight="1100" math="0" shadow="0">
            <root>
                <mxCell id="0"/>
                <mxCell id="1" parent="0"/>
                <mxCell id="K3WvupTLfJS5z887tB19-2" value="Form" style="swimlane;fontStyle=0;childLayout=stackLayout;horizontal=1;startSize=26;fillColor=none;horizontalStack=0;resizeParent=1;resizeParentMax=0;resizeLast=0;collapsible=1;marginBottom=0;" parent="1" vertex="1">
                    <mxGeometry x="-340" y="370" width="150" height="208" as="geometry"/>
                </mxCell>
                <mxCell id="K3WvupTLfJS5z887tB19-3" value="+ id" style="text;strokeColor=none;fillColor=none;align=left;verticalAlign=top;spacingLeft=4;spacingRight=4;overflow=hidden;rotatable=0;points=[[0,0.5],[1,0.5]];portConstraint=eastwest;" parent="K3WvupTLfJS5z887tB19-2" vertex="1">
                    <mxGeometry y="26" width="150" height="26" as="geometry"/>
                </mxCell>
                <mxCell id="K3WvupTLfJS5z887tB19-4" value="+ title" style="text;strokeColor=none;fillColor=none;align=left;verticalAlign=top;spacingLeft=4;spacingRight=4;overflow=hidden;rotatable=0;points=[[0,0.5],[1,0.5]];portConstraint=eastwest;" parent="K3WvupTLfJS5z887tB19-2" vertex="1">
                    <mxGeometry y="52" width="150" height="26" as="geometry"/>
                </mxCell>
                <mxCell id="K3WvupTLfJS5z887tB19-5" value="+ subtitle" style="text;strokeColor=none;fillColor=none;align=left;verticalAlign=top;spacingLeft=4;spacingRight=4;overflow=hidden;rotatable=0;points=[[0,0.5],[1,0.5]];portConstraint=eastwest;" parent="K3WvupTLfJS5z887tB19-2" vertex="1">
                    <mxGeometry y="78" width="150" height="26" as="geometry"/>
                </mxCell>
                <mxCell id="K3WvupTLfJS5z887tB19-65" value="+ available_from: datetime" style="text;strokeColor=none;fillColor=none;align=left;verticalAlign=top;spacingLeft=4;spacingRight=4;overflow=hidden;rotatable=0;points=[[0,0.5],[1,0.5]];portConstraint=eastwest;" parent="K3WvupTLfJS5z887tB19-2" vertex="1">
                    <mxGeometry y="104" width="150" height="26" as="geometry"/>
                </mxCell>
                <mxCell id="K3WvupTLfJS5z887tB19-66" value="+ available_to: datetime" style="text;strokeColor=none;fillColor=none;align=left;verticalAlign=top;spacingLeft=4;spacingRight=4;overflow=hidden;rotatable=0;points=[[0,0.5],[1,0.5]];portConstraint=eastwest;" parent="K3WvupTLfJS5z887tB19-2" vertex="1">
                    <mxGeometry y="130" width="150" height="26" as="geometry"/>
                </mxCell>
                <mxCell id="3" value="+ json_schema: string" style="text;strokeColor=none;fillColor=none;align=left;verticalAlign=top;spacingLeft=4;spacingRight=4;overflow=hidden;rotatable=0;points=[[0,0.5],[1,0.5]];portConstraint=eastwest;" parent="K3WvupTLfJS5z887tB19-2" vertex="1">
                    <mxGeometry y="156" width="150" height="26" as="geometry"/>
                </mxCell>
                <mxCell id="2" value="+ link: string" style="text;strokeColor=none;fillColor=none;align=left;verticalAlign=top;spacingLeft=4;spacingRight=4;overflow=hidden;rotatable=0;points=[[0,0.5],[1,0.5]];portConstraint=eastwest;" parent="K3WvupTLfJS5z887tB19-2" vertex="1">
                    <mxGeometry y="182" width="150" height="26" as="geometry"/>
                </mxCell>
                <mxCell id="K3WvupTLfJS5z887tB19-14" value="User" style="swimlane;fontStyle=0;childLayout=stackLayout;horizontal=1;startSize=26;fillColor=none;horizontalStack=0;resizeParent=1;resizeParentMax=0;resizeLast=0;collapsible=1;marginBottom=0;" parent="1" vertex="1">
                    <mxGeometry x="-330" y="210" width="140" height="78" as="geometry"/>
                </mxCell>
                <mxCell id="K3WvupTLfJS5z887tB19-15" value="+ id" style="text;strokeColor=none;fillColor=none;align=left;verticalAlign=top;spacingLeft=4;spacingRight=4;overflow=hidden;rotatable=0;points=[[0,0.5],[1,0.5]];portConstraint=eastwest;" parent="K3WvupTLfJS5z887tB19-14" vertex="1">
                    <mxGeometry y="26" width="140" height="26" as="geometry"/>
                </mxCell>
                <mxCell id="K3WvupTLfJS5z887tB19-72" value="+ email" style="text;strokeColor=none;fillColor=none;align=left;verticalAlign=top;spacingLeft=4;spacingRight=4;overflow=hidden;rotatable=0;points=[[0,0.5],[1,0.5]];portConstraint=eastwest;" parent="K3WvupTLfJS5z887tB19-14" vertex="1">
                    <mxGeometry y="52" width="140" height="26" as="geometry"/>
                </mxCell>
                <mxCell id="K3WvupTLfJS5z887tB19-39" value="&lt;&lt;Record&gt;&gt;" style="swimlane;fontStyle=0;childLayout=stackLayout;horizontal=1;startSize=26;fillColor=none;horizontalStack=0;resizeParent=1;resizeParentMax=0;resizeLast=0;collapsible=1;marginBottom=0;" parent="1" vertex="1">
                    <mxGeometry x="-310" y="620" width="140" height="52" as="geometry"/>
                </mxCell>
                <mxCell id="K3WvupTLfJS5z887tB19-40" value="+ id" style="text;strokeColor=none;fillColor=none;align=left;verticalAlign=top;spacingLeft=4;spacingRight=4;overflow=hidden;rotatable=0;points=[[0,0.5],[1,0.5]];portConstraint=eastwest;" parent="K3WvupTLfJS5z887tB19-39" vertex="1">
                    <mxGeometry y="26" width="140" height="26" as="geometry"/>
                </mxCell>
                <mxCell id="K3WvupTLfJS5z887tB19-49" value="Field" style="swimlane;fontStyle=0;childLayout=stackLayout;horizontal=1;startSize=26;fillColor=none;horizontalStack=0;resizeParent=1;resizeParentMax=0;resizeLast=0;collapsible=1;marginBottom=0;" parent="1" vertex="1">
                    <mxGeometry x="-580" y="370" width="140" height="156" as="geometry"/>
                </mxCell>
                <mxCell id="K3WvupTLfJS5z887tB19-45" value="+ id" style="text;strokeColor=none;fillColor=none;align=left;verticalAlign=top;spacingLeft=4;spacingRight=4;overflow=hidden;rotatable=0;points=[[0,0.5],[1,0.5]];portConstraint=eastwest;" parent="K3WvupTLfJS5z887tB19-49" vertex="1">
                    <mxGeometry y="26" width="140" height="26" as="geometry"/>
                </mxCell>
                <mxCell id="K3WvupTLfJS5z887tB19-48" value="+ title" style="text;strokeColor=none;fillColor=none;align=left;verticalAlign=top;spacingLeft=4;spacingRight=4;overflow=hidden;rotatable=0;points=[[0,0.5],[1,0.5]];portConstraint=eastwest;" parent="K3WvupTLfJS5z887tB19-49" vertex="1">
                    <mxGeometry y="52" width="140" height="26" as="geometry"/>
                </mxCell>
                <mxCell id="K3WvupTLfJS5z887tB19-47" value="+ type" style="text;strokeColor=none;fillColor=none;align=left;verticalAlign=top;spacingLeft=4;spacingRight=4;overflow=hidden;rotatable=0;points=[[0,0.5],[1,0.5]];portConstraint=eastwest;" parent="K3WvupTLfJS5z887tB19-49" vertex="1">
                    <mxGeometry y="78" width="140" height="26" as="geometry"/>
                </mxCell>
                <mxCell id="K3WvupTLfJS5z887tB19-46" value="+ position" style="text;strokeColor=none;fillColor=none;align=left;verticalAlign=top;spacingLeft=4;spacingRight=4;overflow=hidden;rotatable=0;points=[[0,0.5],[1,0.5]];portConstraint=eastwest;" parent="K3WvupTLfJS5z887tB19-49" vertex="1">
                    <mxGeometry y="104" width="140" height="26" as="geometry"/>
                </mxCell>
                <mxCell id="K3WvupTLfJS5z887tB19-63" value="+ subtitle" style="text;strokeColor=none;fillColor=none;align=left;verticalAlign=top;spacingLeft=4;spacingRight=4;overflow=hidden;rotatable=0;points=[[0,0.5],[1,0.5]];portConstraint=eastwest;" parent="K3WvupTLfJS5z887tB19-49" vertex="1">
                    <mxGeometry y="130" width="140" height="26" as="geometry"/>
                </mxCell>
                <mxCell id="K3WvupTLfJS5z887tB19-54" value="TextRecord" style="swimlane;fontStyle=0;childLayout=stackLayout;horizontal=1;startSize=26;fillColor=none;horizontalStack=0;resizeParent=1;resizeParentMax=0;resizeLast=0;collapsible=1;marginBottom=0;" parent="1" vertex="1">
                    <mxGeometry x="-480" y="750" width="140" height="52" as="geometry"/>
                </mxCell>
                <mxCell id="K3WvupTLfJS5z887tB19-55" value="+ value: string" style="text;strokeColor=none;fillColor=none;align=left;verticalAlign=top;spacingLeft=4;spacingRight=4;overflow=hidden;rotatable=0;points=[[0,0.5],[1,0.5]];portConstraint=eastwest;" parent="K3WvupTLfJS5z887tB19-54" vertex="1">
                    <mxGeometry y="26" width="140" height="26" as="geometry"/>
                </mxCell>
                <mxCell id="K3WvupTLfJS5z887tB19-59" value="NumberRecord" style="swimlane;fontStyle=0;childLayout=stackLayout;horizontal=1;startSize=26;fillColor=none;horizontalStack=0;resizeParent=1;resizeParentMax=0;resizeLast=0;collapsible=1;marginBottom=0;" parent="1" vertex="1">
                    <mxGeometry x="-310" y="750" width="140" height="52" as="geometry"/>
                </mxCell>
                <mxCell id="K3WvupTLfJS5z887tB19-60" value="+ value: int" style="text;strokeColor=none;fillColor=none;align=left;verticalAlign=top;spacingLeft=4;spacingRight=4;overflow=hidden;rotatable=0;points=[[0,0.5],[1,0.5]];portConstraint=eastwest;" parent="K3WvupTLfJS5z887tB19-59" vertex="1">
                    <mxGeometry y="26" width="140" height="26" as="geometry"/>
                </mxCell>
                <mxCell id="K3WvupTLfJS5z887tB19-61" value="FlagRecord" style="swimlane;fontStyle=0;childLayout=stackLayout;horizontal=1;startSize=26;fillColor=none;horizontalStack=0;resizeParent=1;resizeParentMax=0;resizeLast=0;collapsible=1;marginBottom=0;" parent="1" vertex="1">
                    <mxGeometry x="-130" y="750" width="140" height="52" as="geometry"/>
                </mxCell>
                <mxCell id="K3WvupTLfJS5z887tB19-62" value="+ value: boolean" style="text;strokeColor=none;fillColor=none;align=left;verticalAlign=top;spacingLeft=4;spacingRight=4;overflow=hidden;rotatable=0;points=[[0,0.5],[1,0.5]];portConstraint=eastwest;" parent="K3WvupTLfJS5z887tB19-61" vertex="1">
                    <mxGeometry y="26" width="140" height="26" as="geometry"/>
                </mxCell>
                <mxCell id="K3WvupTLfJS5z887tB19-73" value="" style="endArrow=block;dashed=1;endFill=0;endSize=12;html=1;exitX=0.5;exitY=0;exitDx=0;exitDy=0;" parent="1" source="K3WvupTLfJS5z887tB19-54" target="K3WvupTLfJS5z887tB19-40" edge="1">
                    <mxGeometry width="160" relative="1" as="geometry">
                        <mxPoint x="-270" y="630" as="sourcePoint"/>
                        <mxPoint x="-266" y="678" as="targetPoint"/>
                    </mxGeometry>
                </mxCell>
                <mxCell id="K3WvupTLfJS5z887tB19-74" value="" style="endArrow=block;dashed=1;endFill=0;endSize=12;html=1;exitX=0.5;exitY=0;exitDx=0;exitDy=0;entryX=0.5;entryY=1;entryDx=0;entryDy=0;" parent="1" source="K3WvupTLfJS5z887tB19-59" target="K3WvupTLfJS5z887tB19-39" edge="1">
                    <mxGeometry width="160" relative="1" as="geometry">
                        <mxPoint x="-270" y="630" as="sourcePoint"/>
                        <mxPoint x="-237.05999999999995" y="677.012" as="targetPoint"/>
                    </mxGeometry>
                </mxCell>
                <mxCell id="K3WvupTLfJS5z887tB19-75" value="" style="endArrow=block;dashed=1;endFill=0;endSize=12;html=1;exitX=0.5;exitY=0;exitDx=0;exitDy=0;" parent="1" source="K3WvupTLfJS5z887tB19-61" target="K3WvupTLfJS5z887tB19-40" edge="1">
                    <mxGeometry width="160" relative="1" as="geometry">
                        <mxPoint x="-270" y="630" as="sourcePoint"/>
                        <mxPoint x="-212.47058823529414" y="678" as="targetPoint"/>
                    </mxGeometry>
                </mxCell>
                <mxCell id="K3WvupTLfJS5z887tB19-76" value="Submission" style="swimlane;fontStyle=0;childLayout=stackLayout;horizontal=1;startSize=26;fillColor=none;horizontalStack=0;resizeParent=1;resizeParentMax=0;resizeLast=0;collapsible=1;marginBottom=0;" parent="1" vertex="1">
                    <mxGeometry x="-30" y="360" width="140" height="78" as="geometry"/>
                </mxCell>
                <mxCell id="K3WvupTLfJS5z887tB19-77" value="+ id" style="text;strokeColor=none;fillColor=none;align=left;verticalAlign=top;spacingLeft=4;spacingRight=4;overflow=hidden;rotatable=0;points=[[0,0.5],[1,0.5]];portConstraint=eastwest;" parent="K3WvupTLfJS5z887tB19-76" vertex="1">
                    <mxGeometry y="26" width="140" height="26" as="geometry"/>
                </mxCell>
                <mxCell id="K3WvupTLfJS5z887tB19-78" value="+ date" style="text;strokeColor=none;fillColor=none;align=left;verticalAlign=top;spacingLeft=4;spacingRight=4;overflow=hidden;rotatable=0;points=[[0,0.5],[1,0.5]];portConstraint=eastwest;" parent="K3WvupTLfJS5z887tB19-76" vertex="1">
                    <mxGeometry y="52" width="140" height="26" as="geometry"/>
                </mxCell>
                <mxCell id="K3WvupTLfJS5z887tB19-83" value="" style="endArrow=none;html=1;rounded=0;entryX=0.514;entryY=1.077;entryDx=0;entryDy=0;entryPerimeter=0;exitX=1.021;exitY=-0.154;exitDx=0;exitDy=0;exitPerimeter=0;" parent="1" source="K3WvupTLfJS5z887tB19-40" target="K3WvupTLfJS5z887tB19-78" edge="1">
                    <mxGeometry relative="1" as="geometry">
                        <mxPoint x="-170" y="645.5" as="sourcePoint"/>
                        <mxPoint x="-10" y="645.5" as="targetPoint"/>
                        <Array as="points">
                            <mxPoint x="42" y="642"/>
                        </Array>
                    </mxGeometry>
                </mxCell>
                <mxCell id="K3WvupTLfJS5z887tB19-84" value="0..*" style="resizable=0;html=1;align=left;verticalAlign=bottom;" parent="K3WvupTLfJS5z887tB19-83" connectable="0" vertex="1">
                    <mxGeometry x="-1" relative="1" as="geometry"/>
                </mxCell>
                <mxCell id="K3WvupTLfJS5z887tB19-85" value="1" style="resizable=0;html=1;align=right;verticalAlign=bottom;" parent="K3WvupTLfJS5z887tB19-83" connectable="0" vertex="1">
                    <mxGeometry x="1" relative="1" as="geometry"/>
                </mxCell>
                <mxCell id="K3WvupTLfJS5z887tB19-90" value="" style="endArrow=none;html=1;rounded=0;exitX=0;exitY=0.25;exitDx=0;exitDy=0;entryX=1;entryY=0.064;entryDx=0;entryDy=0;entryPerimeter=0;" parent="1" source="K3WvupTLfJS5z887tB19-76" target="K3WvupTLfJS5z887tB19-2" edge="1">
                    <mxGeometry relative="1" as="geometry">
                        <mxPoint x="-50" y="580" as="sourcePoint"/>
                        <mxPoint x="-210" y="580" as="targetPoint"/>
                    </mxGeometry>
                </mxCell>
                <mxCell id="K3WvupTLfJS5z887tB19-91" value="M" style="resizable=0;html=1;align=left;verticalAlign=bottom;" parent="K3WvupTLfJS5z887tB19-90" connectable="0" vertex="1">
                    <mxGeometry x="-1" relative="1" as="geometry"/>
                </mxCell>
                <mxCell id="K3WvupTLfJS5z887tB19-92" value="1" style="resizable=0;html=1;align=right;verticalAlign=bottom;" parent="K3WvupTLfJS5z887tB19-90" connectable="0" vertex="1">
                    <mxGeometry x="1" relative="1" as="geometry">
                        <mxPoint x="20" as="offset"/>
                    </mxGeometry>
                </mxCell>
                <mxCell id="K3WvupTLfJS5z887tB19-96" value="0..*" style="resizable=0;html=1;align=left;verticalAlign=bottom;" parent="1" connectable="0" vertex="1">
                    <mxGeometry x="-60" y="380" as="geometry"/>
                </mxCell>
                <mxCell id="K3WvupTLfJS5z887tB19-97" value="" style="endArrow=none;html=1;rounded=0;exitX=0;exitY=0.25;exitDx=0;exitDy=0;entryX=0.5;entryY=1;entryDx=0;entryDy=0;" parent="1" source="K3WvupTLfJS5z887tB19-39" target="K3WvupTLfJS5z887tB19-49" edge="1">
                    <mxGeometry relative="1" as="geometry">
                        <mxPoint x="-330" y="570" as="sourcePoint"/>
                        <mxPoint x="-170" y="570" as="targetPoint"/>
                        <Array as="points">
                            <mxPoint x="-510" y="630"/>
                        </Array>
                    </mxGeometry>
                </mxCell>
                <mxCell id="K3WvupTLfJS5z887tB19-99" value="1" style="text;html=1;align=center;verticalAlign=middle;resizable=0;points=[];autosize=1;" parent="1" vertex="1">
                    <mxGeometry x="-510" y="530" width="20" height="20" as="geometry"/>
                </mxCell>
                <mxCell id="K3WvupTLfJS5z887tB19-100" value="0..*" style="text;html=1;align=center;verticalAlign=middle;resizable=0;points=[];autosize=1;" parent="1" vertex="1">
                    <mxGeometry x="-350" y="610" width="30" height="20" as="geometry"/>
                </mxCell>
                <mxCell id="K3WvupTLfJS5z887tB19-101" value="" style="endArrow=none;html=1;rounded=0;entryX=-0.013;entryY=0.109;entryDx=0;entryDy=0;entryPerimeter=0;" parent="1" target="K3WvupTLfJS5z887tB19-2" edge="1">
                    <mxGeometry relative="1" as="geometry">
                        <mxPoint x="-439" y="387" as="sourcePoint"/>
                        <mxPoint x="-170" y="570" as="targetPoint"/>
                    </mxGeometry>
                </mxCell>
                <mxCell id="K3WvupTLfJS5z887tB19-102" value="0..*" style="resizable=0;html=1;align=left;verticalAlign=bottom;" parent="K3WvupTLfJS5z887tB19-101" connectable="0" vertex="1">
                    <mxGeometry x="-1" relative="1" as="geometry"/>
                </mxCell>
                <mxCell id="K3WvupTLfJS5z887tB19-103" value="1" style="resizable=0;html=1;align=right;verticalAlign=bottom;" parent="K3WvupTLfJS5z887tB19-101" connectable="0" vertex="1">
                    <mxGeometry x="1" relative="1" as="geometry"/>
                </mxCell>
                <mxCell id="K3WvupTLfJS5z887tB19-104" value="" style="endArrow=none;html=1;rounded=0;entryX=0.5;entryY=0;entryDx=0;entryDy=0;" parent="1" target="K3WvupTLfJS5z887tB19-2" edge="1">
                    <mxGeometry relative="1" as="geometry">
                        <mxPoint x="-265" y="290" as="sourcePoint"/>
                        <mxPoint x="-170" y="570" as="targetPoint"/>
                        <Array as="points"/>
                    </mxGeometry>
                </mxCell>
                <mxCell id="K3WvupTLfJS5z887tB19-105" value="0..*" style="resizable=0;html=1;align=right;verticalAlign=bottom;" parent="K3WvupTLfJS5z887tB19-104" connectable="0" vertex="1">
                    <mxGeometry x="1" relative="1" as="geometry">
                        <mxPoint x="-5" as="offset"/>
                    </mxGeometry>
                </mxCell>
                <mxCell id="K3WvupTLfJS5z887tB19-106" value="1" style="edgeLabel;html=1;align=center;verticalAlign=middle;resizable=0;points=[];" parent="K3WvupTLfJS5z887tB19-104" vertex="1" connectable="0">
                    <mxGeometry x="-0.7918" y="-2" relative="1" as="geometry">
                        <mxPoint x="7" y="1.9999999999999982" as="offset"/>
                    </mxGeometry>
                </mxCell>
            </root>
        </mxGraphModel>
    </diagram>
</mxfile>